<?xml version="1.0" encoding="UTF-8"?>
<svg version="1.1" xmlns="http://www.w3.org/2000/svg" width="200" height="200">
<path d="M0 0 C25.554375 -0.061875 25.554375 -0.061875 51.625 -0.125 C56.97928223 -0.14320801 62.33356445 -0.16141602 67.85009766 -0.18017578 C74.4519043 -0.18920898 74.4519043 -0.18920898 77.55477905 -0.19088745 C79.69500564 -0.19393336 81.83522907 -0.20091431 83.97543335 -0.21115112 C111.4047089 -0.33564633 135.65829478 2.91759582 157 22 C157.83273438 22.73863281 158.66546875 23.47726563 159.5234375 24.23828125 C177.10495794 40.76491046 187.29569293 65.14741488 188.203125 89.12109375 C188.71752929 117.54766445 179.5416961 142.85579 159.8125 163.6875 C140.03978793 182.85182093 116.37699165 187.57980478 89.8125 187.75 C87.57713279 187.77799256 85.34178096 187.80723772 83.10644531 187.83764648 C55.40752618 188.17677083 27.70024329 188.08456655 0 188 C0 179.09 0 170.18 0 161 C3.07715332 160.98541748 6.15430664 160.97083496 9.32470703 160.95581055 C19.53469642 160.9052898 29.74453609 160.8386645 39.95437813 160.76428509 C46.13965659 160.71971271 52.32487117 160.680428 58.51025391 160.65356445 C64.48856653 160.62740007 70.46663158 160.58690588 76.44478989 160.53681374 C78.71629614 160.52023344 80.98784514 160.50866452 83.25940323 160.50238609 C103.89954066 160.43960988 122.09900813 159.34871061 137.81640625 144.28515625 C152.40801324 129.01486987 156.49206036 109.67017275 156.20703125 89.140625 C155.70268456 72.34557077 149.99675176 55.10541798 138 43 C124.12781554 29.9370263 109.52058096 27.72996793 91.1484375 27.5859375 C89.80833862 27.56896136 88.46825018 27.55114028 87.12817383 27.5324707 C82.21056857 27.46978845 77.29276719 27.42333693 72.375 27.375 C61.36125 27.25125 50.3475 27.1275 39 27 C39 52.74 39 78.48 39 105 C53.72625 104.814375 53.72625 104.814375 68.75 104.625 C71.84600586 104.59100098 74.94201172 104.55700195 78.13183594 104.52197266 C80.58269345 104.48677098 83.03354078 104.45085021 85.484375 104.4140625 C87.39694092 104.39702271 87.39694092 104.39702271 89.34814453 104.37963867 C90.5658252 104.35957764 91.78350586 104.3395166 93.03808594 104.31884766 C94.09509705 104.30552399 95.15210815 104.29220032 96.2411499 104.2784729 C99.01765843 103.99821759 100.67712963 103.51900637 103 102 C104.16343227 99.67313547 104.19895988 98.15278587 104.25 95.5625 C104.27578125 94.78003906 104.3015625 93.99757813 104.328125 93.19140625 C103.91962728 90.46322502 103.16727539 89.6558389 101 88 C98.34303242 87.11434414 96.71809917 86.8549738 93.98754883 86.79467773 C93.18694534 86.77473251 92.38634186 86.75478729 91.56147766 86.73423767 C90.70201035 86.71752518 89.84254303 86.70081268 88.95703125 86.68359375 C88.0734343 86.66281265 87.18983734 86.64203156 86.27946472 86.62062073 C83.45722215 86.55524246 80.63488665 86.49629472 77.8125 86.4375 C75.89907894 86.39430363 73.98566727 86.35068898 72.07226562 86.30664062 C67.38160428 86.19878594 62.69087227 86.09962539 58 86 C58 75.11 58 64.22 58 53 C64.36841639 52.93083377 70.73551011 52.87118798 77.10400391 52.83520508 C79.26680945 52.82019232 81.42958493 52.79977584 83.59228516 52.77368164 C86.71524511 52.73696634 89.8377998 52.72019804 92.9609375 52.70703125 C94.39280899 52.68380547 94.39280899 52.68380547 95.85360718 52.66011047 C106.3252162 52.65753191 114.62693778 55.164244 122.5 62.25 C132.32843758 73.06128134 136.41541479 83.5795972 136.27734375 98.23046875 C135.36826312 110.58628299 129.88426235 120.96298051 120.984375 129.4296875 C112.07811213 136.47755694 102.79234766 137.15587381 91.84204102 137.11352539 C90.32421099 137.11370619 90.32421099 137.11370619 88.77571774 137.11389065 C85.51842444 137.11314759 82.26118923 137.10554711 79.00390625 137.09765625 C76.98563667 137.09618495 74.96736671 137.0951654 72.94909668 137.09460449 C65.48689195 137.08937341 58.0246954 137.07541215 50.5625 137.0625 C33.876875 137.041875 17.19125 137.02125 0 137 C0 91.79 0 46.58 0 0 Z " fill="#B50101" transform="translate(6,6)"/>
</svg>
